<?xml version="1.0" encoding="UTF-8" standalone="no"?>
<!-- Created with Inkscape (http://www.inkscape.org/) -->

<svg
   id="svg2"
   sodipodi:docname="12.svg"
   viewBox="0 0 744.09 1052.4"
   version="1.1"
   inkscape:version="1.3 (0e150ed6c4, 2023-07-21)"
   xml:space="preserve"
   xmlns:inkscape="http://www.inkscape.org/namespaces/inkscape"
   xmlns:sodipodi="http://sodipodi.sourceforge.net/DTD/sodipodi-0.dtd"
   xmlns="http://www.w3.org/2000/svg"
   xmlns:svg="http://www.w3.org/2000/svg"
   xmlns:rdf="http://www.w3.org/1999/02/22-rdf-syntax-ns#"
   xmlns:cc="http://creativecommons.org/ns#"
   xmlns:dc="http://purl.org/dc/elements/1.1/"><defs
     id="defs1" /><sodipodi:namedview
     id="base"
     bordercolor="#666666"
     inkscape:pageshadow="2"
     inkscape:guide-bbox="true"
     pagecolor="#ffffff"
     inkscape:window-height="1009"
     inkscape:window-maximized="1"
     inkscape:zoom="0.7"
     inkscape:window-x="3832"
     showgrid="false"
     borderopacity="1.0"
     inkscape:current-layer="layer1"
     inkscape:cx="169.28571"
     inkscape:cy="495"
     showguides="true"
     inkscape:window-y="-8"
     inkscape:window-width="1920"
     inkscape:pageopacity="0.0"
     inkscape:document-units="px"
     inkscape:showpageshadow="2"
     inkscape:pagecheckerboard="0"
     inkscape:deskcolor="#d1d1d1" /><g
     id="layer1"
     inkscape:label="Layer 1"
     inkscape:groupmode="layer"><path
       id="path3053"
       sodipodi:rx="414.28571"
       sodipodi:ry="102.85714"
       style="opacity:.49060;fill:#6f8a91"
       sodipodi:type="arc"
       d="m737.14 1192.4a414.29 102.86 0 1 1 -828.57 0 414.29 102.86 0 1 1 828.57 0z"
       transform="matrix(.42076 0 0 .33728 237.52 576.38)"
       sodipodi:cy="1192.3622"
       sodipodi:cx="322.85715" /><path
       id="path3014"
       style="fill:#404d00;fill-opacity:1"
       inkscape:connector-curvature="0"
       d="m373.3 58.058c-183.43 0.258-332.05 149.04-332.05 332.53 0 121.52 65.173 227.8 162.48 285.82 94.942 70.715 159.22 180.26 169.37 305.13l0.19675 0.33729 0.0843-0.14058 0.0562 0.14058 0.19675-0.33729c10.16-124.88 74.43-234.42 169.38-305.13 97.312-58.012 162.48-164.3 162.48-285.82 0-183.49-148.62-332.27-332.05-332.53-0.0469-0.000063-0.0937 0.000045-0.14053 0z" /><path
       id="path3051"
       sodipodi:rx="145.71428"
       sodipodi:ry="145.71428"
       style="fill:#7e9700;fill-opacity:1"
       sodipodi:type="arc"
       d="m467.14 220.93a145.71 145.71 0 1 1 -291.43 0 145.71 145.71 0 1 1 291.43 0z"
       transform="matrix(1.5292 0 0 1.5292 -118.15 51.446)"
       sodipodi:cy="220.93361"
       sodipodi:cx="321.42856" /><ellipse
       id="path3055"
       style="fill:#aacc00;fill-opacity:1"
       cx="377.64212"
       cy="382.85184"
       rx="218.52771"
       ry="214.9577" /><path
       d="m 418.93312,243.92944 c -9.25832,-2.72663 -18.89787,2.78228 -21.56644,12.24202 l -69.70973,249.29202 c -2.66858,9.45974 2.72303,19.30899 11.98136,22.03563 9.25832,2.72663 18.89787,-2.78228 21.56645,-12.24202 l 69.70973,-249.29201 c 2.66858,-9.45974 -2.72304,-19.309 -11.98137,-22.03564 z m 43.89535,66.8303 c -6.80759,6.95569 -6.80759,18.25174 0,25.20743 l 48.63343,49.74711 -48.68788,49.74711 c -6.8076,6.95569 -6.8076,18.25174 0,25.20743 6.80759,6.95569 17.86311,6.95569 24.67071,0 l 60.996,-62.32301 c 6.8076,-6.95569 6.8076,-18.25173 0,-25.20742 l -60.996,-62.323 c -6.8076,-6.9557 -17.86312,-6.9557 -24.67071,0 z m -167.03105,0 c -6.80759,-6.95569 -17.86312,-6.95569 -24.67071,0 l -60.99602,62.32301 c -6.80759,6.95568 -6.80759,18.25173 0,25.20742 l 60.99602,62.323 c 6.80759,6.9557 17.86312,6.9557 24.67071,0 6.8076,-6.95569 6.8076,-18.25174 0,-25.20743 l -48.68789,-49.69146 48.68789,-49.74711 c 6.8076,-6.95569 6.8076,-18.25174 0,-25.20743 z"
       id="path1"
       style="stroke-width:0.5505;fill:#ffffff" /></g><g
     inkscape:groupmode="layer"
     id="layer2"
     inkscape:label="Layer 2" /><metadata
     id="metadata1"><rdf:RDF><cc:Work><dc:format>image/svg+xml</dc:format><dc:type
           rdf:resource="http://purl.org/dc/dcmitype/StillImage" /><cc:license
           rdf:resource="http://creativecommons.org/licenses/publicdomain/" /><dc:publisher><cc:Agent
             rdf:about="http://openclipart.org/"><dc:title>Openclipart</dc:title></cc:Agent></dc:publisher></cc:Work><cc:License
         rdf:about="http://creativecommons.org/licenses/publicdomain/"><cc:permits
           rdf:resource="http://creativecommons.org/ns#Reproduction" /><cc:permits
           rdf:resource="http://creativecommons.org/ns#Distribution" /><cc:permits
           rdf:resource="http://creativecommons.org/ns#DerivativeWorks" /></cc:License></rdf:RDF></metadata></svg>
