<?xml version="1.0" encoding="UTF-8" standalone="no"?>
<!-- Created with Inkscape (http://www.inkscape.org/) -->

<svg
   id="svg2"
   sodipodi:docname="2.svg"
   viewBox="0 0 744.09 1052.4"
   version="1.1"
   inkscape:version="1.3 (0e150ed6c4, 2023-07-21)"
   xml:space="preserve"
   xmlns:inkscape="http://www.inkscape.org/namespaces/inkscape"
   xmlns:sodipodi="http://sodipodi.sourceforge.net/DTD/sodipodi-0.dtd"
   xmlns="http://www.w3.org/2000/svg"
   xmlns:svg="http://www.w3.org/2000/svg"
   xmlns:rdf="http://www.w3.org/1999/02/22-rdf-syntax-ns#"
   xmlns:cc="http://creativecommons.org/ns#"
   xmlns:dc="http://purl.org/dc/elements/1.1/"><defs
     id="defs1" /><sodipodi:namedview
     id="base"
     bordercolor="#666666"
     inkscape:pageshadow="2"
     inkscape:guide-bbox="true"
     pagecolor="#ffffff"
     inkscape:window-height="1009"
     inkscape:window-maximized="1"
     inkscape:zoom="0.7"
     inkscape:window-x="3832"
     showgrid="false"
     borderopacity="1.0"
     inkscape:current-layer="layer1"
     inkscape:cx="417.85714"
     inkscape:cy="492.14286"
     showguides="true"
     inkscape:window-y="-8"
     inkscape:window-width="1920"
     inkscape:pageopacity="0.0"
     inkscape:document-units="px"
     inkscape:showpageshadow="2"
     inkscape:pagecheckerboard="0"
     inkscape:deskcolor="#d1d1d1" /><g
     id="layer1"
     inkscape:label="Layer 1"
     inkscape:groupmode="layer"><path
       id="path3053"
       sodipodi:rx="414.28571"
       sodipodi:ry="102.85714"
       style="opacity:.49060;fill:#6f8a91"
       sodipodi:type="arc"
       d="m737.14 1192.4a414.29 102.86 0 1 1 -828.57 0 414.29 102.86 0 1 1 828.57 0z"
       transform="matrix(.42076 0 0 .33728 237.52 576.38)"
       sodipodi:cy="1192.3622"
       sodipodi:cx="322.85715" /><path
       id="path3014"
       style="fill:#550500;fill-opacity:1"
       inkscape:connector-curvature="0"
       d="m373.3 58.058c-183.43 0.258-332.05 149.04-332.05 332.53 0 121.52 65.173 227.8 162.48 285.82 94.942 70.715 159.22 180.26 169.37 305.13l0.19675 0.33729 0.0843-0.14058 0.0562 0.14058 0.19675-0.33729c10.16-124.88 74.43-234.42 169.38-305.13 97.312-58.012 162.48-164.3 162.48-285.82 0-183.49-148.62-332.27-332.05-332.53-0.0469-0.000063-0.0937 0.000045-0.14053 0z" /><path
       id="path3051"
       sodipodi:rx="145.71428"
       sodipodi:ry="145.71428"
       style="fill:#aa0000;fill-opacity:1"
       sodipodi:type="arc"
       d="m467.14 220.93a145.71 145.71 0 1 1 -291.43 0 145.71 145.71 0 1 1 291.43 0z"
       transform="matrix(1.5292 0 0 1.5292 -118.15 51.446)"
       sodipodi:cy="220.93361"
       sodipodi:cx="321.42856" /><ellipse
       id="path3055"
       style="fill:#ff2a2a;fill-opacity:1"
       cx="377.64212"
       cy="382.85184"
       rx="218.52771"
       ry="214.9577" /><path
       d="m 378.57142,365.00001 a 85.142861,75.142861 0 1 1 0,-150.28572 85.142861,75.142861 0 1 1 0,150.28572 z m -9.91117,60.58392 -12.37231,-18.19865 c -4.25715,-6.28148 0.86473,-14.2067 9.11294,-14.2067 h 13.17054 13.10401 c 8.24823,0 13.37009,7.98393 9.11295,14.2067 l -12.37232,18.19865 22.21696,72.73594 23.94643,-86.23817 c 1.33036,-4.75513 6.51875,-7.86652 11.90669,-6.6337 46.62903,10.33214 81.08528,47.55134 81.08528,91.81517 0,9.97992 -9.17947,18.02255 -20.42098,18.02255 h -87.67053 c -1.39689,0 -2.66071,-0.23482 -3.85805,-0.64576 l 0.19956,0.64576 h -74.5 l 0.19956,-0.64576 c -1.19732,0.41094 -2.52769,0.64576 -3.85804,0.64576 h -87.67053 c -11.24153,0 -20.42099,-8.10134 -20.42099,-18.02255 0,-44.32254 34.52276,-81.54174 81.08527,-91.81517 5.38794,-1.17411 10.57634,1.93728 11.90669,6.6337 l 23.94643,86.23817 22.21697,-72.73594 z"
       id="path1-0"
       style="fill:#ffffff;stroke-width:0.624896" /></g><g
     inkscape:groupmode="layer"
     id="layer2"
     inkscape:label="Layer 2" /><metadata
     id="metadata1"><rdf:RDF><cc:Work><dc:format>image/svg+xml</dc:format><dc:type
           rdf:resource="http://purl.org/dc/dcmitype/StillImage" /><cc:license
           rdf:resource="http://creativecommons.org/licenses/publicdomain/" /><dc:publisher><cc:Agent
             rdf:about="http://openclipart.org/"><dc:title>Openclipart</dc:title></cc:Agent></dc:publisher></cc:Work><cc:License
         rdf:about="http://creativecommons.org/licenses/publicdomain/"><cc:permits
           rdf:resource="http://creativecommons.org/ns#Reproduction" /><cc:permits
           rdf:resource="http://creativecommons.org/ns#Distribution" /><cc:permits
           rdf:resource="http://creativecommons.org/ns#DerivativeWorks" /></cc:License></rdf:RDF></metadata></svg>
