<?xml version="1.0" encoding="UTF-8" standalone="no"?>
<!-- Created with Inkscape (http://www.inkscape.org/) -->

<svg
   id="svg2"
   sodipodi:docname="8.svg"
   viewBox="0 0 744.09 1052.4"
   version="1.1"
   inkscape:version="1.3 (0e150ed6c4, 2023-07-21)"
   xml:space="preserve"
   xmlns:inkscape="http://www.inkscape.org/namespaces/inkscape"
   xmlns:sodipodi="http://sodipodi.sourceforge.net/DTD/sodipodi-0.dtd"
   xmlns="http://www.w3.org/2000/svg"
   xmlns:svg="http://www.w3.org/2000/svg"
   xmlns:rdf="http://www.w3.org/1999/02/22-rdf-syntax-ns#"
   xmlns:cc="http://creativecommons.org/ns#"
   xmlns:dc="http://purl.org/dc/elements/1.1/"><defs
     id="defs1" /><sodipodi:namedview
     id="base"
     bordercolor="#666666"
     inkscape:pageshadow="2"
     inkscape:guide-bbox="true"
     pagecolor="#ffffff"
     inkscape:window-height="1009"
     inkscape:window-maximized="1"
     inkscape:zoom="0.7"
     inkscape:window-x="3832"
     showgrid="false"
     borderopacity="1.0"
     inkscape:current-layer="layer1"
     inkscape:cx="417.85714"
     inkscape:cy="492.14286"
     showguides="true"
     inkscape:window-y="-8"
     inkscape:window-width="1920"
     inkscape:pageopacity="0.0"
     inkscape:document-units="px"
     inkscape:showpageshadow="2"
     inkscape:pagecheckerboard="0"
     inkscape:deskcolor="#d1d1d1" /><g
     id="layer1"
     inkscape:label="Layer 1"
     inkscape:groupmode="layer"><path
       id="path3053"
       sodipodi:rx="414.28571"
       sodipodi:ry="102.85714"
       style="opacity:.49060;fill:#6f8a91"
       sodipodi:type="arc"
       d="m737.14 1192.4a414.29 102.86 0 1 1 -828.57 0 414.29 102.86 0 1 1 828.57 0z"
       transform="matrix(.42076 0 0 .33728 237.52 576.38)"
       sodipodi:cy="1192.3622"
       sodipodi:cx="322.85715" /><path
       id="path3014"
       style="fill:#000e55;fill-opacity:1"
       inkscape:connector-curvature="0"
       d="m373.3 58.058c-183.43 0.258-332.05 149.04-332.05 332.53 0 121.52 65.173 227.8 162.48 285.82 94.942 70.715 159.22 180.26 169.37 305.13l0.19675 0.33729 0.0843-0.14058 0.0562 0.14058 0.19675-0.33729c10.16-124.88 74.43-234.42 169.38-305.13 97.312-58.012 162.48-164.3 162.48-285.82 0-183.49-148.62-332.27-332.05-332.53-0.0469-0.000063-0.0937 0.000045-0.14053 0z" /><path
       id="path3051"
       sodipodi:rx="145.71428"
       sodipodi:ry="145.71428"
       style="fill:#001164;fill-opacity:1"
       sodipodi:type="arc"
       d="m467.14 220.93a145.71 145.71 0 1 1 -291.43 0 145.71 145.71 0 1 1 291.43 0z"
       transform="matrix(1.5292 0 0 1.5292 -118.15 51.446)"
       sodipodi:cy="220.93361"
       sodipodi:cx="321.42856" /><ellipse
       id="path3055"
       style="fill:#001db1;fill-opacity:1"
       cx="377.64212"
       cy="382.85184"
       rx="218.52771"
       ry="214.9577" /><path
       d="m 240.43361,257.25 c 0,-5.07578 2.01872,-11.91954 3.2937,-15.56953 0.53124,-1.65391 2.01872,-2.68047 3.61244,-2.68047 1.00936,0 2.01873,0.39922 2.76246,1.19766 l 24.33088,24.86562 24.33087,-24.86562 c 0.74375,-0.79844 1.7531,-1.19766 2.76246,-1.19766 1.59372,0 3.08121,1.02656 3.61245,2.68047 1.27498,3.70703 3.2937,10.49375 3.2937,15.56953 0,15.11328 -11.6342,23.95312 -15.67164,26.57656 l 40.48063,41.40469 c 3.18745,3.25078 7.38426,5.01875 11.74044,5.01875 h 116.44822 16.99974 c 21.40905,0 41.54311,10.83593 54.39916,29.2 l 10.19985,14.6 c 5.63116,8.04141 4.09056,19.50469 -3.39995,25.55 -7.49051,6.04531 -18.16847,4.39141 -23.79964,-3.65 l -10.19984,-14.6 c -2.81558,-3.99219 -6.26865,-7.3 -10.19984,-9.69531 V 421.5 H 308.43257 l -21.46218,-53.78047 c -2.07184,-5.24687 -8.12799,-7.18594 -12.5373,-3.99219 L 252.0678,379.69609 C 247.2335,383.175 241.60234,385 235.75868,385 h -1.06248 c -15.56539,0 -28.26207,-13.63047 -28.26207,-30.39766 0,-6.90078 2.17809,-13.57344 6.21553,-18.9914 l 40.32125,-54.06563 c -5.04679,-4.10625 -12.5373,-12.20468 -12.5373,-24.29531 z m 203.99687,182.5 h 50.99922 v 36.5 36.5 c 0,10.09454 -7.59675,18.25 -16.99974,18.25 h -16.99974 c -9.40298,0 -16.99974,-8.15546 -16.99974,-18.25 v -36.5 h -84.9987 v 36.5 c 0,10.09454 -7.59676,18.25 -16.99974,18.25 H 325.4323 c -9.40297,0 -16.99973,-8.15546 -16.99973,-18.25 v -36.5 -36.5 h 50.99921 z m -99.39535,-80.47109 c -0.47811,-1.02657 -1.48748,-1.65391 -2.54996,-1.65391 -1.06248,0 -2.07184,0.62734 -2.54996,1.65391 l -5.57804,11.6914 -12.48418,1.88204 c -1.06249,0.17108 -1.9656,0.91249 -2.28434,1.99609 -0.31875,1.08359 -0.0532,2.22421 0.69061,3.02265 l 9.03111,9.125 -2.12497,12.88907 c -0.15937,1.08359 0.26562,2.22421 1.11561,2.85156 0.84999,0.62734 2.01872,0.74141 2.97496,0.22812 l 11.15607,-6.10234 11.15609,6.10234 c 0.95623,0.51329 2.12496,0.45625 2.97495,-0.22812 0.84999,-0.68438 1.32811,-1.76797 1.11561,-2.85156 l -2.12497,-12.88907 9.03111,-9.125 c 0.79686,-0.79844 1.06248,-1.93906 0.69062,-3.02265 -0.37187,-1.0836 -1.22186,-1.82501 -2.28434,-1.99609 l -12.48419,-1.88204 -5.57804,-11.6914 z m 56.94912,-1.65391 c -1.06247,0 -2.07184,0.62734 -2.54996,1.65391 l -5.57803,11.6914 -12.48418,1.88204 c -1.06249,0.17108 -1.9656,0.91249 -2.28434,1.99609 -0.31875,1.08359 -0.0532,2.22421 0.69061,3.02265 l 9.03111,9.125 -2.12497,12.88907 c -0.15937,1.08359 0.26562,2.22421 1.11561,2.85156 0.84998,0.62734 2.01872,0.74141 2.97496,0.22812 l 11.15607,-6.10234 11.15609,6.10234 c 0.95623,0.51329 2.12496,0.45625 2.97495,-0.22812 0.84998,-0.68438 1.3281,-1.76797 1.1156,-2.85156 l -2.12496,-12.88907 9.03111,-9.125 c 0.79686,-0.79844 1.06248,-1.93906 0.74374,-3.02265 -0.31875,-1.0836 -1.22186,-1.82501 -2.28434,-1.99609 l -12.48419,-1.88204 -5.57804,-11.6914 c -0.47811,-1.02657 -1.48747,-1.65391 -2.54996,-1.65391 z m 62.04906,1.65391 c -0.47812,-1.02657 -1.48748,-1.65391 -2.54996,-1.65391 -1.06249,0 -2.07185,0.62734 -2.54996,1.65391 l -5.57804,11.6914 -12.48419,1.88204 c -1.06248,0.17108 -1.96559,0.91249 -2.28434,1.99609 -0.31874,1.08359 -0.0532,2.22421 0.69061,3.02265 l 9.03112,9.125 -2.12497,12.88907 c -0.15937,1.08359 0.26562,2.22421 1.1156,2.85156 0.84999,0.62734 2.01873,0.74141 2.97496,0.22812 l 11.15608,-6.10234 11.15608,6.10234 c 0.95623,0.51329 2.12497,0.45625 2.97495,-0.22812 0.84999,-0.68438 1.32811,-1.76797 1.11561,-2.85156 l -2.12496,-12.88907 9.03111,-9.125 c 0.79686,-0.79844 1.06248,-1.93906 0.74373,-3.02265 -0.31874,-1.0836 -1.22185,-1.82501 -2.28434,-1.99609 l -12.48418,-1.88204 -5.57804,-11.6914 z"
       id="path1"
       style="fill:#ffffff;stroke-width:0.55043" /></g><g
     inkscape:groupmode="layer"
     id="layer2"
     inkscape:label="Layer 2" /><metadata
     id="metadata1"><rdf:RDF><cc:Work><dc:format>image/svg+xml</dc:format><dc:type
           rdf:resource="http://purl.org/dc/dcmitype/StillImage" /><cc:license
           rdf:resource="http://creativecommons.org/licenses/publicdomain/" /><dc:publisher><cc:Agent
             rdf:about="http://openclipart.org/"><dc:title>Openclipart</dc:title></cc:Agent></dc:publisher></cc:Work><cc:License
         rdf:about="http://creativecommons.org/licenses/publicdomain/"><cc:permits
           rdf:resource="http://creativecommons.org/ns#Reproduction" /><cc:permits
           rdf:resource="http://creativecommons.org/ns#Distribution" /><cc:permits
           rdf:resource="http://creativecommons.org/ns#DerivativeWorks" /></cc:License></rdf:RDF></metadata></svg>
