<?xml version="1.0" encoding="UTF-8" standalone="no"?>
<!-- Created with Inkscape (http://www.inkscape.org/) -->

<svg
   id="svg2"
   sodipodi:docname="10.svg"
   viewBox="0 0 744.09 1052.4"
   version="1.1"
   inkscape:version="1.3 (0e150ed6c4, 2023-07-21)"
   xml:space="preserve"
   xmlns:inkscape="http://www.inkscape.org/namespaces/inkscape"
   xmlns:sodipodi="http://sodipodi.sourceforge.net/DTD/sodipodi-0.dtd"
   xmlns="http://www.w3.org/2000/svg"
   xmlns:svg="http://www.w3.org/2000/svg"
   xmlns:rdf="http://www.w3.org/1999/02/22-rdf-syntax-ns#"
   xmlns:cc="http://creativecommons.org/ns#"
   xmlns:dc="http://purl.org/dc/elements/1.1/"><defs
     id="defs1" /><sodipodi:namedview
     id="base"
     bordercolor="#666666"
     inkscape:pageshadow="2"
     inkscape:guide-bbox="true"
     pagecolor="#ffffff"
     inkscape:window-height="1009"
     inkscape:window-maximized="1"
     inkscape:zoom="0.35"
     inkscape:window-x="3832"
     showgrid="false"
     borderopacity="1.0"
     inkscape:current-layer="layer1"
     inkscape:cx="278.57143"
     inkscape:cy="598.57143"
     showguides="true"
     inkscape:window-y="-8"
     inkscape:window-width="1920"
     inkscape:pageopacity="0.0"
     inkscape:document-units="px"
     inkscape:showpageshadow="2"
     inkscape:pagecheckerboard="0"
     inkscape:deskcolor="#d1d1d1" /><g
     id="layer1"
     inkscape:label="Layer 1"
     inkscape:groupmode="layer"><path
       id="path3053"
       sodipodi:rx="414.28571"
       sodipodi:ry="102.85714"
       style="opacity:.49060;fill:#6f8a91"
       sodipodi:type="arc"
       d="m737.14 1192.4a414.29 102.86 0 1 1 -828.57 0 414.29 102.86 0 1 1 828.57 0z"
       transform="matrix(.42076 0 0 .33728 237.52 576.38)"
       sodipodi:cy="1192.3622"
       sodipodi:cx="322.85715" /><path
       id="path3014"
       style="fill:#550055;fill-opacity:1"
       inkscape:connector-curvature="0"
       d="m373.3 58.058c-183.43 0.258-332.05 149.04-332.05 332.53 0 121.52 65.173 227.8 162.48 285.82 94.942 70.715 159.22 180.26 169.37 305.13l0.19675 0.33729 0.0843-0.14058 0.0562 0.14058 0.19675-0.33729c10.16-124.88 74.43-234.42 169.38-305.13 97.312-58.012 162.48-164.3 162.48-285.82 0-183.49-148.62-332.27-332.05-332.53-0.0469-0.000063-0.0937 0.000045-0.14053 0z" /><path
       id="path3051"
       sodipodi:rx="145.71428"
       sodipodi:ry="145.71428"
       style="fill:#840084;fill-opacity:1"
       sodipodi:type="arc"
       d="m467.14 220.93a145.71 145.71 0 1 1 -291.43 0 145.71 145.71 0 1 1 291.43 0z"
       transform="matrix(1.5292 0 0 1.5292 -118.15 51.446)"
       sodipodi:cy="220.93361"
       sodipodi:cx="321.42856" /><ellipse
       id="path3055"
       style="fill:#e300e3;fill-opacity:1"
       cx="377.64212"
       cy="382.85184"
       rx="218.52771"
       ry="214.9577" /><path
       d="m 530.57679,387.60206 c -15.47934,4.93716 -31.67038,7.83135 -48.03936,8.56909 5.45632,-59.75653 -18.68198,-115.88113 -61.20571,-154.58383 63.16287,17.59215 109.3637,73.433 109.3637,139.54537 0,2.15647 -0.0593,4.31292 -0.11863,6.46937 z m -2.31299,19.69185 c -3.43986,18.15964 -10.43819,35.18427 -20.2833,50.33622 -57.82516,27.52318 -129.11321,24.17501 -184.98122,-13.90347 14.05597,-20.54307 32.85656,-38.41896 56.04593,-52.09543 47.387,24.5155 100.88268,28.82841 149.21859,15.66268 z m -139.96656,-31.4956 c -1.48269,-51.58469 -24.37552,-98.00523 -60.43471,-131.48704 15.8945,-5.50463 33.09379,-8.45557 51.00476,-8.45557 1.60131,0 3.14331,0 4.68533,0.0568 53.85152,34.16279 86.41154,94.88404 79.88769,160.20194 -25.5617,-1.36197 -51.242,-8.00158 -75.20237,-20.37283 z M 308.884,252.19936 c 12.21743,10.38503 22.95215,22.35904 31.84833,35.52476 -56.81692,25.36675 -95.54496,73.433 -109.3637,127.96861 -2.84677,-11.06601 -4.32947,-22.64278 -4.32947,-34.56004 0,-56.06783 33.2124,-104.70158 81.84484,-128.93333 z m 41.27828,51.35769 c 11.56503,21.90505 18.38544,46.4773 19.15644,72.46825 -45.90429,27.01244 -76.50714,69.17684 -88.78387,115.76763 -14.3525,-11.69027 -26.45131,-25.87748 -35.46609,-41.88064 3.97362,-61.68599 42.64235,-119.11579 105.03421,-146.35524 z m 28.70501,222.85266 c -30.06909,0 -58.1217,-8.34209 -81.72624,-22.81303 3.32125,-15.32218 8.77756,-30.13362 16.25036,-44.09385 51.36061,34.33305 114.16764,42.39138 170.45079,26.61522 -27.28161,24.96947 -64.23041,40.29166 -104.97491,40.29166 z"
       id="path1"
       style="fill:#ffffff;stroke-width:0.580143" /></g><g
     inkscape:groupmode="layer"
     id="layer2"
     inkscape:label="Layer 2" /><metadata
     id="metadata1"><rdf:RDF><cc:Work><dc:format>image/svg+xml</dc:format><dc:type
           rdf:resource="http://purl.org/dc/dcmitype/StillImage" /><cc:license
           rdf:resource="http://creativecommons.org/licenses/publicdomain/" /><dc:publisher><cc:Agent
             rdf:about="http://openclipart.org/"><dc:title>Openclipart</dc:title></cc:Agent></dc:publisher></cc:Work><cc:License
         rdf:about="http://creativecommons.org/licenses/publicdomain/"><cc:permits
           rdf:resource="http://creativecommons.org/ns#Reproduction" /><cc:permits
           rdf:resource="http://creativecommons.org/ns#Distribution" /><cc:permits
           rdf:resource="http://creativecommons.org/ns#DerivativeWorks" /></cc:License></rdf:RDF></metadata></svg>
