<?xml version="1.0" encoding="UTF-8" standalone="no"?>
<!-- Created with Inkscape (http://www.inkscape.org/) -->

<svg
   id="svg2"
   sodipodi:docname="4.svg"
   viewBox="0 0 744.09 1052.4"
   version="1.1"
   inkscape:version="1.3 (0e150ed6c4, 2023-07-21)"
   xml:space="preserve"
   xmlns:inkscape="http://www.inkscape.org/namespaces/inkscape"
   xmlns:sodipodi="http://sodipodi.sourceforge.net/DTD/sodipodi-0.dtd"
   xmlns="http://www.w3.org/2000/svg"
   xmlns:svg="http://www.w3.org/2000/svg"
   xmlns:rdf="http://www.w3.org/1999/02/22-rdf-syntax-ns#"
   xmlns:cc="http://creativecommons.org/ns#"
   xmlns:dc="http://purl.org/dc/elements/1.1/"><defs
     id="defs1" /><sodipodi:namedview
     id="base"
     bordercolor="#666666"
     inkscape:pageshadow="2"
     inkscape:guide-bbox="true"
     pagecolor="#ffffff"
     inkscape:window-height="1009"
     inkscape:window-maximized="1"
     inkscape:zoom="0.7"
     inkscape:window-x="3832"
     showgrid="false"
     borderopacity="1.0"
     inkscape:current-layer="layer1"
     inkscape:cx="417.85714"
     inkscape:cy="492.14286"
     showguides="true"
     inkscape:window-y="-8"
     inkscape:window-width="1920"
     inkscape:pageopacity="0.0"
     inkscape:document-units="px"
     inkscape:showpageshadow="2"
     inkscape:pagecheckerboard="0"
     inkscape:deskcolor="#d1d1d1" /><g
     id="layer1"
     inkscape:label="Layer 1"
     inkscape:groupmode="layer"><path
       id="path3053"
       sodipodi:rx="414.28571"
       sodipodi:ry="102.85714"
       style="opacity:.49060;fill:#6f8a91"
       sodipodi:type="arc"
       d="m737.14 1192.4a414.29 102.86 0 1 1 -828.57 0 414.29 102.86 0 1 1 828.57 0z"
       transform="matrix(.42076 0 0 .33728 237.52 576.38)"
       sodipodi:cy="1192.3622"
       sodipodi:cx="322.85715" /><path
       id="path3014"
       style="fill:#553200;fill-opacity:1"
       inkscape:connector-curvature="0"
       d="m373.3 58.058c-183.43 0.258-332.05 149.04-332.05 332.53 0 121.52 65.173 227.8 162.48 285.82 94.942 70.715 159.22 180.26 169.37 305.13l0.19675 0.33729 0.0843-0.14058 0.0562 0.14058 0.19675-0.33729c10.16-124.88 74.43-234.42 169.38-305.13 97.312-58.012 162.48-164.3 162.48-285.82 0-183.49-148.62-332.27-332.05-332.53-0.0469-0.000063-0.0937 0.000045-0.14053 0z" /><path
       id="path3051"
       sodipodi:rx="145.71428"
       sodipodi:ry="145.71428"
       style="fill:#aa6400;fill-opacity:1"
       sodipodi:type="arc"
       d="m467.14 220.93a145.71 145.71 0 1 1 -291.43 0 145.71 145.71 0 1 1 291.43 0z"
       transform="matrix(1.5292 0 0 1.5292 -118.15 51.446)"
       sodipodi:cy="220.93361"
       sodipodi:cx="321.42856" /><ellipse
       id="path3055"
       style="fill:#ffb52a;fill-opacity:1"
       cx="377.64212"
       cy="382.85184"
       rx="218.52771"
       ry="214.9577" /><path
       d="m 254.61607,354.42857 c -10.0625,0 -18.1875,-8.35714 -18.1875,-18.70714 0,-1.22143 0.125,-2.37857 0.375,-3.6 3.3125,-13.5 28.875,-101.12143 139.625,-101.12143 110.75,0 136.3125,87.62143 139.625,101.12143 0.3125,1.22143 0.375,2.37857 0.375,3.6 0,10.35 -8.125,18.70714 -18.1875,18.70714 z m 51.8125,-61.71428 a 10,10.285714 0 1 0 -20,0 10,10.285714 0 1 0 20,0 z m 150,10.28571 a 10.000001,10.285715 0 1 0 0,-20.57143 10.000001,10.285715 0 1 0 0,20.57143 z m -70,-30.85714 a 10,10.285714 0 1 0 -20,0 10,10.285714 0 1 0 20,0 z m -160,133.71428 c 0,-17.03571 13.4375,-30.85714 30,-30.85714 h 240 c 16.5625,0 30,13.82143 30,30.85714 0,17.03572 -13.4375,30.85715 -30,30.85715 h -240 c -16.5625,0 -30,-13.82143 -30,-30.85715 z m 10,61.71429 c 0,-5.65714 4.5,-10.28572 10,-10.28572 h 260 c 5.5,0 10,4.62858 10,10.28572 v 10.28571 c 0,22.69286 -17.9375,41.14286 -40,41.14286 h -200 c -22.0625,0 -40,-18.45 -40,-41.14286 z"
       id="path1"
       style="stroke-width:0.633866;fill:#ffffff" /></g><g
     inkscape:groupmode="layer"
     id="layer2"
     inkscape:label="Layer 2" /><metadata
     id="metadata1"><rdf:RDF><cc:Work><dc:format>image/svg+xml</dc:format><dc:type
           rdf:resource="http://purl.org/dc/dcmitype/StillImage" /><cc:license
           rdf:resource="http://creativecommons.org/licenses/publicdomain/" /><dc:publisher><cc:Agent
             rdf:about="http://openclipart.org/"><dc:title>Openclipart</dc:title></cc:Agent></dc:publisher></cc:Work><cc:License
         rdf:about="http://creativecommons.org/licenses/publicdomain/"><cc:permits
           rdf:resource="http://creativecommons.org/ns#Reproduction" /><cc:permits
           rdf:resource="http://creativecommons.org/ns#Distribution" /><cc:permits
           rdf:resource="http://creativecommons.org/ns#DerivativeWorks" /></cc:License></rdf:RDF></metadata></svg>
