<?xml version="1.0" encoding="UTF-8" standalone="no"?>
<!-- Created with Inkscape (http://www.inkscape.org/) -->

<svg
   id="svg2"
   sodipodi:docname="7.svg"
   viewBox="0 0 744.09 1052.4"
   version="1.1"
   inkscape:version="1.3 (0e150ed6c4, 2023-07-21)"
   xml:space="preserve"
   xmlns:inkscape="http://www.inkscape.org/namespaces/inkscape"
   xmlns:sodipodi="http://sodipodi.sourceforge.net/DTD/sodipodi-0.dtd"
   xmlns="http://www.w3.org/2000/svg"
   xmlns:svg="http://www.w3.org/2000/svg"
   xmlns:rdf="http://www.w3.org/1999/02/22-rdf-syntax-ns#"
   xmlns:cc="http://creativecommons.org/ns#"
   xmlns:dc="http://purl.org/dc/elements/1.1/"><defs
     id="defs1" /><sodipodi:namedview
     id="base"
     bordercolor="#666666"
     inkscape:pageshadow="2"
     inkscape:guide-bbox="true"
     pagecolor="#ffffff"
     inkscape:window-height="1009"
     inkscape:window-maximized="1"
     inkscape:zoom="0.7"
     inkscape:window-x="3832"
     showgrid="false"
     borderopacity="1.0"
     inkscape:current-layer="layer1"
     inkscape:cx="417.85714"
     inkscape:cy="492.14286"
     showguides="true"
     inkscape:window-y="-8"
     inkscape:window-width="1920"
     inkscape:pageopacity="0.0"
     inkscape:document-units="px"
     inkscape:showpageshadow="2"
     inkscape:pagecheckerboard="0"
     inkscape:deskcolor="#d1d1d1" /><g
     id="layer1"
     inkscape:label="Layer 1"
     inkscape:groupmode="layer"><path
       id="path3053"
       sodipodi:rx="414.28571"
       sodipodi:ry="102.85714"
       style="opacity:.49060;fill:#6f8a91"
       sodipodi:type="arc"
       d="m737.14 1192.4a414.29 102.86 0 1 1 -828.57 0 414.29 102.86 0 1 1 828.57 0z"
       transform="matrix(.42076 0 0 .33728 237.52 576.38)"
       sodipodi:cy="1192.3622"
       sodipodi:cx="322.85715" /><path
       id="path3014"
       style="fill:#003955;fill-opacity:1"
       inkscape:connector-curvature="0"
       d="m373.3 58.058c-183.43 0.258-332.05 149.04-332.05 332.53 0 121.52 65.173 227.8 162.48 285.82 94.942 70.715 159.22 180.26 169.37 305.13l0.19675 0.33729 0.0843-0.14058 0.0562 0.14058 0.19675-0.33729c10.16-124.88 74.43-234.42 169.38-305.13 97.312-58.012 162.48-164.3 162.48-285.82 0-183.49-148.62-332.27-332.05-332.53-0.0469-0.000063-0.0937 0.000045-0.14053 0z" /><path
       id="path3051"
       sodipodi:rx="145.71428"
       sodipodi:ry="145.71428"
       style="fill:#004364;fill-opacity:1"
       sodipodi:type="arc"
       d="m467.14 220.93a145.71 145.71 0 1 1 -291.43 0 145.71 145.71 0 1 1 291.43 0z"
       transform="matrix(1.5292 0 0 1.5292 -118.15 51.446)"
       sodipodi:cy="220.93361"
       sodipodi:cx="321.42856" /><ellipse
       id="path3055"
       style="fill:#0076b1;fill-opacity:1"
       cx="377.64212"
       cy="382.85184"
       rx="218.52771"
       ry="214.9577" /><path
       d="m 296.83528,234.97852 -15.11253,23.89269 c -2.33446,3.68889 -3.56311,7.94531 -3.56311,12.25847 v 1.58907 c 0,12.54223 10.99652,22.70088 24.57321,22.70088 13.5767,0 24.57322,-10.15865 24.57322,-22.70088 v -1.58907 c 0,-4.31316 -1.22865,-8.51282 -3.56312,-12.25847 l -15.11253,-23.89269 c -1.22865,-1.92959 -3.44023,-3.12139 -5.89757,-3.12139 -2.45733,0 -4.66891,1.1918 -5.89757,3.12139 z m 78.63429,0 -15.11253,23.89269 c -2.33446,3.68889 -3.56311,7.94531 -3.56311,12.25847 v 1.58907 c 0,12.54223 10.99651,22.70088 24.57321,22.70088 13.5767,0 24.57322,-10.15865 24.57322,-22.70088 v -1.58907 c 0,-4.31316 -1.22867,-8.51282 -3.56313,-12.25847 l -15.11252,-23.89269 c -1.22866,-1.92959 -3.44025,-3.12139 -5.89757,-3.12139 -2.45732,0 -4.66891,1.1918 -5.89757,3.12139 z m 63.52176,23.89269 c -2.33445,3.68889 -3.56312,7.94531 -3.56312,12.25847 v 1.58907 c 0,12.54223 10.99651,22.70088 24.57321,22.70088 13.5767,0 24.57321,-10.15865 24.57321,-22.70088 v -1.58907 c 0,-4.31316 -1.22865,-8.51282 -3.5631,-12.25847 l -15.11254,-23.89269 c -1.22865,-1.92959 -3.44024,-3.12139 -5.89757,-3.12139 -2.45731,0 -4.66891,1.1918 -5.89756,3.12139 z m -116.5999,72.86986 c 0,-10.04515 -8.78492,-18.16072 -19.65858,-18.16072 -10.87365,0 -19.65857,8.11557 -19.65857,18.16072 v 27.24106 c -21.68585,0 -39.31714,16.2879 -39.31714,36.32144 v 40.29409 c 5.09894,2.95111 11.11938,5.10769 17.69271,5.10769 8.29346,0 16.70979,-3.46188 23.59029,-7.6048 3.31738,-1.98633 6.08187,-4.0294 7.9863,-5.50497 0.92149,-0.73776 1.65869,-1.36205 2.15015,-1.75931 0.24573,-0.22701 0.43003,-0.34051 0.49147,-0.45402 l 0.0614,-0.0568 v 0 0 c 0,0 0,0 0,0 0,0 0,0 0,0 1.90442,-1.81608 4.54604,-2.78087 7.31053,-2.72411 2.76449,0.0568 5.28324,1.19179 7.12622,3.06462 v 0 0 l 0.0614,0.0568 c 0.0614,0.0567 0.24573,0.227 0.43002,0.39726 0.43003,0.39727 1.04436,0.96479 1.90444,1.70257 1.72012,1.47555 4.17744,3.46188 7.24908,5.39147 6.26617,4.0294 14.1296,7.43454 22.3002,7.43454 8.17059,0 16.03402,-3.40514 22.30019,-7.43454 3.07164,-1.98634 5.52898,-3.91592 7.24909,-5.39147 0.86007,-0.73778 1.4744,-1.3053 1.90443,-1.70257 0.18429,-0.17026 0.3686,-0.34051 0.43003,-0.39726 l 0.0614,-0.0568 c 1.84299,-1.98633 4.54603,-3.06462 7.37195,-3.06462 2.82593,0 5.52898,1.13505 7.37198,3.06462 l 0.0614,0.0568 c 0.0614,0.0567 0.24574,0.227 0.43003,0.39726 0.43004,0.39727 1.04437,0.96479 1.90443,1.70257 1.72012,1.47555 4.17744,3.46188 7.2491,5.39147 6.26617,4.0294 14.1296,7.43454 22.30019,7.43454 8.1706,0 16.03403,-3.40514 22.3002,-7.43454 3.07165,-1.98634 5.52896,-3.91592 7.24908,-5.39147 0.86007,-0.73778 1.4744,-1.3053 1.90443,-1.70257 0.1843,-0.17026 0.36861,-0.34051 0.43004,-0.39726 l 0.0614,-0.0568 c 1.78156,-1.92957 4.36175,-3.00787 7.12624,-3.06462 2.76449,-0.0568 5.34467,0.90803 7.31053,2.72411 v 0 0 0 l 0.0614,0.0568 c 0.12287,0.11351 0.24574,0.22701 0.49147,0.45402 0.49146,0.39726 1.16722,1.02155 2.15014,1.75931 1.90444,1.47557 4.60749,3.51864 7.98631,5.50497 6.88049,4.14292 15.29683,7.6048 23.59027,7.6048 6.57335,0 12.59379,-2.21333 17.69273,-5.10769 v -40.29409 c 0,-20.03354 -17.63128,-36.32144 -39.31715,-36.32144 v -27.24106 c 0,-10.04515 -8.78492,-18.16072 -19.65856,-18.16072 -10.87365,0 -19.65858,8.11557 -19.65858,18.16072 v 27.24106 h -39.44 v -27.24106 c 0,-10.04515 -8.78493,-18.16072 -19.65859,-18.16072 -10.87363,0 -19.65856,8.11557 -19.65856,18.16072 v 27.24106 h -39.317 z m 196.5857,124.06038 c -5.22179,1.87282 -11.18081,3.06462 -17.69271,3.06462 -13.82242,0 -26.0476,-5.61847 -34.27962,-10.55591 -2.51876,-1.53232 -4.79179,-3.06463 -6.6962,-4.42668 -1.72014,1.36205 -3.74742,2.83761 -6.02045,4.25642 -7.92485,5.05095 -19.72,10.72617 -33.60387,10.72617 -13.88386,0 -25.67901,-5.67522 -33.54243,-10.72617 -2.15016,-1.36206 -4.11601,-2.78087 -5.77471,-4.08617 -1.65869,1.3053 -3.62455,2.66736 -5.7747,4.08617 -7.86343,5.05095 -19.65857,10.72617 -33.54245,10.72617 -13.88385,0 -25.679,-5.67522 -33.54244,-10.72617 -2.273,-1.47557 -4.30031,-2.95112 -6.02043,-4.25642 -1.90442,1.36205 -4.17745,2.89436 -6.69621,4.42668 -8.29345,4.93744 -20.51861,10.55591 -34.34106,10.55591 -6.5119,0 -12.4709,-1.24855 -17.69271,-3.06462 v 48.4664 c 0,10.04515 8.78493,18.16072 19.65857,18.16072 h 235.90286 c 10.87365,0 19.65856,-8.11557 19.65856,-18.16072 z"
       id="path1"
       style="stroke-width:0.590463;fill:#ffffff" /></g><g
     inkscape:groupmode="layer"
     id="layer2"
     inkscape:label="Layer 2" /><metadata
     id="metadata1"><rdf:RDF><cc:Work><dc:format>image/svg+xml</dc:format><dc:type
           rdf:resource="http://purl.org/dc/dcmitype/StillImage" /><cc:license
           rdf:resource="http://creativecommons.org/licenses/publicdomain/" /><dc:publisher><cc:Agent
             rdf:about="http://openclipart.org/"><dc:title>Openclipart</dc:title></cc:Agent></dc:publisher></cc:Work><cc:License
         rdf:about="http://creativecommons.org/licenses/publicdomain/"><cc:permits
           rdf:resource="http://creativecommons.org/ns#Reproduction" /><cc:permits
           rdf:resource="http://creativecommons.org/ns#Distribution" /><cc:permits
           rdf:resource="http://creativecommons.org/ns#DerivativeWorks" /></cc:License></rdf:RDF></metadata></svg>
